<svg viewBox="0 0 24 24" fill="none" xmlns="http://www.w3.org/2000/svg">
  <!-- Water Drop -->
  <path d="M12 4C12 4 7 10 7 14C7 17.3137 9.68629 20 13 20C13 20 13 20 13 20C16.3137 20 19 17.3137 19 14C19 10 12 4 12 4Z" stroke="currentColor" stroke-width="1.5" stroke-linecap="round" stroke-linejoin="round" fill="none"/>
  <!-- Shield/Protection -->
  <path d="M12 6C12 6 8 11 8 14C8 16.2091 9.79086 18 12 18C14.2091 18 16 16.2091 16 14C16 11 12 6 12 6Z" stroke="currentColor" stroke-width="1.5" fill="none"/>
  <!-- Checkmark -->
  <path d="M10 14L11.5 15.5L14 12" stroke="currentColor" stroke-width="1.5" stroke-linecap="round" stroke-linejoin="round"/>
</svg>